# xmcd
# 
# Track frame offsets:
#     150
#     24675
#     39300
#     56220
#     73500
#     97405
#     114562
#     133495
#     155987
#     172750
# 
# Disc length: 2932
# 
# Revision: 2
# Processed by: cddbd v1.5.2PL0 Copyright (c) Steve Scherf et al.
# Submitted via: fre:ac v1.0.17
# 
DISCID=950b720a
DTITLE=André Gagnon - L’éternel Retour
DYEAR=2000
DGENRE=Easy Listening
TTITLE0=かすかな予感
TTITLE1=静かな別れ
TTITLE2=一人のドライヴ
TTITLE3=想い出のリフレイン
TTITLE4=夜に流れて
TTITLE5=最後の愛かもしれない
TTITLE6=北国への電話
TTITLE7=囚われの心
TTITLE8=突然の手紙
TTITLE9=霧の街
EXTD=
EXTT0=
EXTT1=
EXTT2=
EXTT3=
EXTT4=
EXTT5=
EXTT6=
EXTT7=
EXTT8=
EXTT9=
PLAYORDER=
